<?xml version="1.0" encoding="utf-8"?>
<!-- Generator: Adobe Illustrator 17.1.0, SVG Export Plug-In . SVG Version: 6.00 Build 0)  -->
<!DOCTYPE svg PUBLIC "-//W3C//DTD SVG 1.1//EN" "http://www.w3.org/Graphics/SVG/1.1/DTD/svg11.dtd">
<svg version="1.1" id="Layer_1" xmlns="http://www.w3.org/2000/svg" xmlns:xlink="http://www.w3.org/1999/xlink" x="0px" y="0px"
	 viewBox="0 0 230.7 197.3" enable-background="new 0 0 230.7 197.3" xml:space="preserve">
<linearGradient id="SVGID_1_" gradientUnits="userSpaceOnUse" x1="65.5022" y1="150.4888" x2="150.872" y2="65.119">
	<stop  offset="0" style="stop-color:#FFFFFF"/>
	<stop  offset="1" style="stop-color:#C5E8F3"/>
</linearGradient>
<path fill="url(#SVGID_1_)" d="M82.8,116.9c0.4,1.3,5.2,4,5.4,1.8c0-0.1,0-0.2-0.1-0.2c-0.5-0.3-0.9-0.6-1.2-0.9
	c0.3-0.1,0.4-0.4,0.3-0.9c-0.1-0.3-0.2-0.7-0.3-1c0-0.1,0.1-0.1,0.1-0.2c0.2,0.4,0.5,0.7,0.9,1c1,0.6,1.4-0.4,1.1-1.2
	c-0.7-2,0.2-3.8-0.4-5.9c-0.3-1.1-0.9-2.1-1.2-3.2c0.7-5,3.6-9,4.8-13.9c0.2-1,0.3-2,0.6-3c0.3-1.3,1.1-2.5,1.4-3.9
	c0.3-1.5-0.2-3,0.4-4.5c0.1-0.4,0.2-0.8,0.3-1.2c0.5,3,1.2,6,1,9.1c-0.2,2.7-1,5.3-1.7,7.8c-0.6,2.2-2.1,4.8-2.2,7.1
	c0,0.1,0.1,0.3,0.2,0.3c0.2,0.1,0.3,0.1,0.5,0.1c-0.8,3-0.3,6.9-0.1,9.8c0.4,4,0.8,8,1.5,11.9c0.6,3.5,1.3,7,2.3,10.4
	c1.3,4.5,0.1,9.1,0.9,13.7c0,0,0,0,0,0c0.2,3.1,0.8,6.3,1.2,9.5c0.3,2.7,1.4,5.3,1.8,8c0.2,1.5,0.3,3,0.3,4.5c0,0.4,0.2,0.9,0.4,1.4
	c-0.1,2-0.7,4.1-1.3,6c-0.5,1.4-0.8,3.7,0,5c0.8,1.3,2.1,2.2,3.7,2.3c1,0,2.5-2.3,3-2.8c0.7-0.6,1.1-1.6,1-2.5
	c-0.4-2.2-0.9-4.3-0.9-6.5c0-1.9,1.1-3.5,0-5.2c-0.1-0.2-0.4-0.6-0.6-1c0.1-1.2,0.2-2.4,0.3-3.6c0.3-3.1-0.1-6.2,0-9.3
	c0,0,0,0,0-0.1c0-0.4,0-0.9,0-1.3c0.2-2,0.5-4,0.7-6.1c0.2-1.7,0.2-3.5,0.1-5.2c0.4-2.5,1-4.9,1-7.5c0-3.3-0.6-6.6-0.6-10
	c0-3-0.4-6.8,0.5-9.8c0,0,0.1,0,0.1,0c0.1,0,0.1,0,0.2,0c0.1,0,0.1,0,0.2,0c0,0,0.1,0,0.1,0c0.9,3,0.5,6.9,0.5,9.8
	c0,3.3-0.6,6.7-0.6,10c0,2.6,0.6,5,1,7.5c-0.1,1.8-0.1,3.5,0.1,5.2c0.3,2,0.6,4,0.7,6.1c0,0.4,0,0.9,0,1.3c0,0,0,0.1,0,0.1
	c0.1,3.1-0.4,6.2,0,9.3c0.1,1.2,0.2,2.4,0.3,3.6c-0.3,0.4-0.5,0.8-0.6,1c-1.1,1.7,0,3.3,0,5.2c0,2.2-0.5,4.3-0.9,6.5
	c-0.2,0.9,0.3,1.9,1,2.5c0.6,0.5,2.1,2.8,3,2.8c1.6-0.1,2.8-1,3.7-2.3c0.9-1.3,0.5-3.6,0-5c-0.6-1.9-1.2-3.9-1.3-6
	c0.2-0.5,0.4-1,0.4-1.4c0-1.5,0.1-3,0.3-4.5c0.4-2.7,1.4-5.3,1.8-8c0.4-3.2,1.1-6.3,1.2-9.5c0,0,0,0,0,0c0.8-4.5-0.4-9.2,0.9-13.7
	c1-3.5,1.7-6.9,2.3-10.4c0.7-4,1.1-7.9,1.5-11.9c0.3-2.9,0.8-6.9-0.1-9.8c0.2,0,0.4-0.1,0.5-0.1c0.1,0,0.2-0.2,0.2-0.3
	c-0.1-2.3-1.5-4.8-2.2-7.1c-0.7-2.6-1.5-5.1-1.7-7.8c-0.3-3,0.5-6.1,1-9.1c0,0.4,0.1,0.8,0.3,1.2c0.5,1.5,0,3,0.4,4.5
	c0.3,1.3,1.1,2.6,1.4,3.9c0.2,1,0.3,2,0.6,3c1.2,4.9,4.1,8.9,4.8,13.9c-0.3,1.1-0.9,2.1-1.2,3.2c-0.6,2.1,0.4,3.9-0.4,5.9
	c-0.3,0.8,0.2,1.7,1.1,1.2c0.4-0.2,0.7-0.6,0.9-1c0,0.1,0.1,0.1,0.1,0.2c-0.1,0.3-0.3,0.6-0.3,1c-0.1,0.4,0,0.7,0.3,0.9
	c-0.3,0.3-0.7,0.6-1.2,0.9c-0.1,0-0.1,0.1-0.1,0.2c0.1,2.2,5-0.5,5.4-1.8c0.3-1.1,0.9-2.2,1.3-3.2c0.2-0.6-0.3-1.2-0.4-1.7
	c-0.4-2-0.8-3.9-1.4-5.9c0.5-1.8-0.4-4.1-0.5-5.8c-0.3-3-0.7-6.1-1.1-9c-0.4-2.6-1-5-1.7-7.5c-0.6-2.3-0.8-4.6-1-6.9
	c0.3,0,0.5-0.1,0.7-0.1c0.1,0,0.2-0.1,0.2-0.2c0.2-1.2-0.3-2.7-0.4-3.9c-0.2-1.3-0.4-2.8-0.8-4.1c-0.1-1-0.2-1.9-0.3-2.7
	c-0.2-2.9-0.9-5.7-2.3-8.3c-1.1-2.1-4.9-3.1-6.9-3.6c-1.6-0.5-4-1.3-5.2-2.9c0.1-0.4,0.1-0.9,0-1.4c0.1,0.4,0.1,0.8,0.1,1.3
	c0,0.1,0.1,0.1,0.1,0c0.1-0.2,0.1-0.4,0.2-0.6c0.1,0.1,0.1,0.3,0.2,0.4c0,0,0.1,0,0.1,0c0.1-0.3,0.1-0.7,0.1-1
	c0.2,0.5,0.4,1,0.8,1.4c0,0,0.1,0,0,0c-0.1-0.4-0.3-0.7-0.4-1.1c0.2,0.4,0.5,0.8,0.8,1.2c0,0,0.1,0,0.1,0c-0.1-0.5-0.2-1-0.3-1.5
	c0,0,0,0,0,0c0-0.2,0-0.4-0.1-0.6c-0.1-0.2-0.1-0.3-0.2-0.5c0.3,0.5,0.5,1,0.8,1.5c0,0.1,0.1,0,0.1-0.1c0-0.2-0.1-0.3-0.1-0.5
	c0,0.1,0.1,0.2,0.1,0.3c0,0,0.1,0,0.1,0c0.1-0.4,0.1-0.8,0.1-1.2c0.2,0.2,0.5,0.4,0.6,0.7c0,0,0.1,0,0.1,0c-0.2-0.4-0.5-0.7-0.7-1
	c0-0.2-0.1-0.5-0.1-0.7c0.3,0.6,0.6,1.2,1.1,1.2c0,0,0.1,0,0-0.1c-0.1-0.2-0.2-0.4-0.2-0.6c0.2,0.3,0.5,0.6,0.7,0.9c0,0,0,0,0,0
	c-0.3-0.6-0.7-1.1-1-1.7c-0.2-0.5-0.3-1-0.4-1.6c0,0.1,0,0.1,0.1,0.2c0.3,0.6,0.8,1,1,1.6c0,0.1,0.1,0,0.1,0
	c-0.3-1.8-1.2-3.4-1.2-5.4c0-0.3,0-0.6,0-0.9c0.3,1.4,0.6,2.7,1.1,4.1c0,0,0,0,0,0c0.1-0.6,0-1.3-0.1-2c0.4,0.7,0.8,1.3,1.4,1.8
	c0,0,0,0,0,0c-0.4-1.5-1.3-3-1.6-4.6c-0.2-1.1-0.2-2.2-0.2-3.3c0.5,1.9,1,3.8,2.2,5.3c0,0,0.1,0,0.1-0.1c-1.4-2.5-1.2-5.7-2.5-8.3
	c0-0.1-0.1-0.2-0.1-0.3c-0.3-1.2-0.7-2.4-1.4-3.6c-0.1-0.1-0.1-0.2-0.2-0.3c-0.4-0.7-0.9-1.4-1.7-1.9c-1.5-1.4-3.4-2.4-5.2-1.5
	c-1.7-0.8-3.7,0.2-5.2,1.5c-0.8,0.5-1.3,1.2-1.7,1.9c-0.1,0.1-0.2,0.2-0.2,0.3c-0.7,1.2-1.2,2.3-1.4,3.6c0,0.1-0.1,0.2-0.1,0.3
	c-1.3,2.6-1.2,5.8-2.5,8.3c0,0,0,0.1,0.1,0.1c1.2-1.5,1.7-3.4,2.2-5.3c0,1.1,0,2.2-0.2,3.3c-0.3,1.6-1.1,3-1.6,4.6c0,0,0,0,0,0
	c0.6-0.5,1-1.2,1.4-1.8c-0.1,0.7-0.2,1.4-0.1,2c0,0,0,0,0,0c0.4-1.4,0.8-2.7,1.1-4.1c0,0.3,0,0.6,0,0.9c0,1.9-0.9,3.5-1.2,5.4
	c0,0,0.1,0.1,0.1,0c0.3-0.6,0.8-1,1-1.6c0-0.1,0-0.1,0.1-0.2c-0.1,0.5-0.2,1-0.4,1.6c-0.4,0.6-0.7,1.1-1,1.7c0,0,0,0,0,0
	c0.2-0.3,0.5-0.6,0.7-0.9c-0.1,0.2-0.1,0.4-0.2,0.6c0,0,0,0.1,0,0.1c0.4,0,0.8-0.6,1.1-1.2c0,0.2-0.1,0.5-0.1,0.7
	c-0.2,0.3-0.5,0.7-0.7,1c0,0,0,0.1,0.1,0c0.1-0.3,0.4-0.5,0.6-0.7c0,0.4,0,0.9,0.1,1.2c0,0,0,0,0.1,0c0-0.1,0.1-0.2,0.1-0.3
	c0,0.2-0.1,0.3-0.1,0.5c0,0.1,0.1,0.1,0.1,0.1c0.3-0.5,0.5-1,0.8-1.5c0,0.2-0.1,0.3-0.2,0.5c-0.1,0.2-0.1,0.4-0.1,0.6c0,0,0,0,0,0
	c-0.1,0.5-0.3,1-0.3,1.5c0,0,0.1,0.1,0.1,0c0.3-0.4,0.6-0.8,0.8-1.2c-0.1,0.4-0.2,0.7-0.4,1.1c0,0,0,0,0,0c0.3-0.5,0.5-1,0.8-1.4
	c0,0.3,0,0.7,0.1,1c0,0,0.1,0,0.1,0c0.1-0.1,0.2-0.3,0.2-0.4c0,0.2,0.1,0.4,0.2,0.6c0,0.1,0.1,0,0.1,0c0-0.4,0-0.8,0.1-1.3
	c-0.1,0.5-0.1,1,0,1.4c-1.1,1.5-3.6,2.4-5.2,2.9c-2.1,0.6-5.8,1.5-6.9,3.6c-1.4,2.6-2.1,5.4-2.3,8.3c-0.1,0.9-0.2,1.8-0.3,2.7
	c-0.3,1.3-0.6,2.8-0.8,4.1c-0.1,1.2-0.6,2.7-0.4,3.9c0,0.1,0.1,0.2,0.2,0.2c0.2,0,0.5,0.1,0.7,0.1c-0.2,2.3-0.3,4.6-1,6.9
	c-0.7,2.5-1.3,5-1.7,7.5c-0.5,3-0.9,6-1.1,9c-0.2,1.7-1,4.1-0.5,5.8c-0.6,1.9-1,3.9-1.4,5.9c-0.1,0.5-0.6,1.2-0.4,1.7
	C81.9,114.7,82.5,115.8,82.8,116.9z"/>
<polyline fill="none" stroke="#EFEFEF" stroke-width="0.8356" stroke-miterlimit="10" points="26.6,146.1 208.8,41.9 123.5,34.2 
	96.1,31.7 86.9,30.8 32.7,25.9 212.1,160 47.8,96.5 70.4,87.4 140.7,59 154.2,53.6 "/>
<circle fill="#EFEFEF" cx="35" cy="25.9" r="3.3"/>
<circle fill="#EFEFEF" cx="153" cy="54.2" r="3.3"/>
<circle fill="#EFEFEF" cx="26.6" cy="146.1" r="3.3"/>
<circle fill="#EFEFEF" cx="47.5" cy="96.8" r="3.3"/>
<path fill="#EFEFEF" d="M214.5,157.6c2.7,3.6-1.3,7.6-4.9,4.9C206.9,158.9,211,154.8,214.5,157.6z"/>
<circle fill="#EFEFEF" cx="208.8" cy="40.8" r="3.3"/>
<linearGradient id="SVGID_2_" gradientUnits="userSpaceOnUse" x1="65.5022" y1="150.4888" x2="150.872" y2="65.119">
	<stop  offset="0" style="stop-color:#FFFFFF"/>
	<stop  offset="1" style="stop-color:#C5E8F3"/>
</linearGradient>
<path fill="url(#SVGID_2_)" d="M82.8,116.9c0.4,1.3,5.2,4,5.4,1.8c0-0.1,0-0.2-0.1-0.2c-0.5-0.3-0.9-0.6-1.2-0.9
	c0.3-0.1,0.4-0.4,0.3-0.9c-0.1-0.3-0.2-0.7-0.3-1c0-0.1,0.1-0.1,0.1-0.2c0.2,0.4,0.5,0.7,0.9,1c1,0.6,1.4-0.4,1.1-1.2
	c-0.7-2,0.2-3.8-0.4-5.9c-0.3-1.1-0.9-2.1-1.2-3.2c0.7-5,3.6-9,4.8-13.9c0.2-1,0.3-2,0.6-3c0.3-1.3,1.1-2.5,1.4-3.9
	c0.3-1.5-0.2-3,0.4-4.5c0.1-0.4,0.2-0.8,0.3-1.2c0.5,3,1.2,6,1,9.1c-0.2,2.7-1,5.3-1.7,7.8c-0.6,2.2-2.1,4.8-2.2,7.1
	c0,0.1,0.1,0.3,0.2,0.3c0.2,0.1,0.3,0.1,0.5,0.1c-0.8,3-0.3,6.9-0.1,9.8c0.4,4,0.8,8,1.5,11.9c0.6,3.5,1.3,7,2.3,10.4
	c1.3,4.5,0.1,9.1,0.9,13.7c0,0,0,0,0,0c0.2,3.1,0.8,6.3,1.2,9.5c0.3,2.7,1.4,5.3,1.8,8c0.2,1.5,0.3,3,0.3,4.5c0,0.4,0.2,0.9,0.4,1.4
	c-0.1,2-0.7,4.1-1.3,6c-0.5,1.4-0.8,3.7,0,5c0.8,1.3,2.1,2.2,3.7,2.3c1,0,2.5-2.3,3-2.8c0.7-0.6,1.1-1.6,1-2.5
	c-0.4-2.2-0.9-4.3-0.9-6.5c0-1.9,1.1-3.5,0-5.2c-0.1-0.2-0.4-0.6-0.6-1c0.1-1.2,0.2-2.4,0.3-3.6c0.3-3.1-0.1-6.2,0-9.3
	c0,0,0,0,0-0.1c0-0.4,0-0.9,0-1.3c0.2-2,0.5-4,0.7-6.1c0.2-1.7,0.2-3.5,0.1-5.2c0.4-2.5,1-4.9,1-7.5c0-3.3-0.6-6.6-0.6-10
	c0-3-0.4-6.8,0.5-9.8c0,0,0.1,0,0.1,0c0.1,0,0.1,0,0.2,0c0.1,0,0.1,0,0.2,0c0,0,0.1,0,0.1,0c0.9,3,0.5,6.9,0.5,9.8
	c0,3.3-0.6,6.7-0.6,10c0,2.6,0.6,5,1,7.5c-0.1,1.8-0.1,3.5,0.1,5.2c0.3,2,0.6,4,0.7,6.1c0,0.4,0,0.9,0,1.3c0,0,0,0.1,0,0.1
	c0.1,3.1-0.4,6.2,0,9.3c0.1,1.2,0.2,2.4,0.3,3.6c-0.3,0.4-0.5,0.8-0.6,1c-1.1,1.7,0,3.3,0,5.2c0,2.2-0.5,4.3-0.9,6.5
	c-0.2,0.9,0.3,1.9,1,2.5c0.6,0.5,2.1,2.8,3,2.8c1.6-0.1,2.8-1,3.7-2.3c0.9-1.3,0.5-3.6,0-5c-0.6-1.9-1.2-3.9-1.3-6
	c0.2-0.5,0.4-1,0.4-1.4c0-1.5,0.1-3,0.3-4.5c0.4-2.7,1.4-5.3,1.8-8c0.4-3.2,1.1-6.3,1.2-9.5c0,0,0,0,0,0c0.8-4.5-0.4-9.2,0.9-13.7
	c1-3.5,1.7-6.9,2.3-10.4c0.7-4,1.1-7.9,1.5-11.9c0.3-2.9,0.8-6.9-0.1-9.8c0.2,0,0.4-0.1,0.5-0.1c0.1,0,0.2-0.2,0.2-0.3
	c-0.1-2.3-1.5-4.8-2.2-7.1c-0.7-2.6-1.5-5.1-1.7-7.8c-0.3-3,0.5-6.1,1-9.1c0,0.4,0.1,0.8,0.3,1.2c0.5,1.5,0,3,0.4,4.5
	c0.3,1.3,1.1,2.6,1.4,3.9c0.2,1,0.3,2,0.6,3c1.2,4.9,4.1,8.9,4.8,13.9c-0.3,1.1-0.9,2.1-1.2,3.2c-0.6,2.1,0.4,3.9-0.4,5.9
	c-0.3,0.8,0.2,1.7,1.1,1.2c0.4-0.2,0.7-0.6,0.9-1c0,0.1,0.1,0.1,0.1,0.2c-0.1,0.3-0.3,0.6-0.3,1c-0.1,0.4,0,0.7,0.3,0.9
	c-0.3,0.3-0.7,0.6-1.2,0.9c-0.1,0-0.1,0.1-0.1,0.2c0.1,2.2,5-0.5,5.4-1.8c0.3-1.1,0.9-2.2,1.3-3.2c0.2-0.6-0.3-1.2-0.4-1.7
	c-0.4-2-0.8-3.9-1.4-5.9c0.5-1.8-0.4-4.1-0.5-5.8c-0.3-3-0.7-6.1-1.1-9c-0.4-2.6-1-5-1.7-7.5c-0.6-2.3-0.8-4.6-1-6.9
	c0.3,0,0.5-0.1,0.7-0.1c0.1,0,0.2-0.1,0.2-0.2c0.2-1.2-0.3-2.7-0.4-3.9c-0.2-1.3-0.4-2.8-0.8-4.1c-0.1-1-0.2-1.9-0.3-2.7
	c-0.2-2.9-0.9-5.7-2.3-8.3c-1.1-2.1-4.9-3.1-6.9-3.6c-1.6-0.5-4-1.3-5.2-2.9c0.1-0.4,0.1-0.9,0-1.4c0.1,0.4,0.1,0.8,0.1,1.3
	c0,0.1,0.1,0.1,0.1,0c0.1-0.2,0.1-0.4,0.2-0.6c0.1,0.1,0.1,0.3,0.2,0.4c0,0,0.1,0,0.1,0c0.1-0.3,0.1-0.7,0.1-1
	c0.2,0.5,0.4,1,0.8,1.4c0,0,0.1,0,0,0c-0.1-0.4-0.3-0.7-0.4-1.1c0.2,0.4,0.5,0.8,0.8,1.2c0,0,0.1,0,0.1,0c-0.1-0.5-0.2-1-0.3-1.5
	c0,0,0,0,0,0c0-0.2,0-0.4-0.1-0.6c-0.1-0.2-0.1-0.3-0.2-0.5c0.3,0.5,0.5,1,0.8,1.5c0,0.1,0.1,0,0.1-0.1c0-0.2-0.1-0.3-0.1-0.5
	c0,0.1,0.1,0.2,0.1,0.3c0,0,0.1,0,0.1,0c0.1-0.4,0.1-0.8,0.1-1.2c0.2,0.2,0.5,0.4,0.6,0.7c0,0,0.1,0,0.1,0c-0.2-0.4-0.5-0.7-0.7-1
	c0-0.2-0.1-0.5-0.1-0.7c0.3,0.6,0.6,1.2,1.1,1.2c0,0,0.1,0,0-0.1c-0.1-0.2-0.2-0.4-0.2-0.6c0.2,0.3,0.5,0.6,0.7,0.9c0,0,0,0,0,0
	c-0.3-0.6-0.7-1.1-1-1.7c-0.2-0.5-0.3-1-0.4-1.6c0,0.1,0,0.1,0.1,0.2c0.3,0.6,0.8,1,1,1.6c0,0.1,0.1,0,0.1,0
	c-0.3-1.8-1.2-3.4-1.2-5.4c0-0.3,0-0.6,0-0.9c0.3,1.4,0.6,2.7,1.1,4.1c0,0,0,0,0,0c0.1-0.6,0-1.3-0.1-2c0.4,0.7,0.8,1.3,1.4,1.8
	c0,0,0,0,0,0c-0.4-1.5-1.3-3-1.6-4.6c-0.2-1.1-0.2-2.2-0.2-3.3c0.5,1.9,1,3.8,2.2,5.3c0,0,0.1,0,0.1-0.1c-1.4-2.5-1.2-5.7-2.5-8.3
	c0-0.1-0.1-0.2-0.1-0.3c-0.3-1.2-0.7-2.4-1.4-3.6c-0.1-0.1-0.1-0.2-0.2-0.3c-0.4-0.7-0.9-1.4-1.7-1.9c-1.5-1.4-3.4-2.4-5.2-1.5
	c-1.7-0.8-3.7,0.2-5.2,1.5c-0.8,0.5-1.3,1.2-1.7,1.9c-0.1,0.1-0.2,0.2-0.2,0.3c-0.7,1.2-1.2,2.3-1.4,3.6c0,0.1-0.1,0.2-0.1,0.3
	c-1.3,2.6-1.2,5.8-2.5,8.3c0,0,0,0.1,0.1,0.1c1.2-1.5,1.7-3.4,2.2-5.3c0,1.1,0,2.2-0.2,3.3c-0.3,1.6-1.1,3-1.6,4.6c0,0,0,0,0,0
	c0.6-0.5,1-1.2,1.4-1.8c-0.1,0.7-0.2,1.4-0.1,2c0,0,0,0,0,0c0.4-1.4,0.8-2.7,1.1-4.1c0,0.3,0,0.6,0,0.9c0,1.9-0.9,3.5-1.2,5.4
	c0,0,0.1,0.1,0.1,0c0.3-0.6,0.8-1,1-1.6c0-0.1,0-0.1,0.1-0.2c-0.1,0.5-0.2,1-0.4,1.6c-0.4,0.6-0.7,1.1-1,1.7c0,0,0,0,0,0
	c0.2-0.3,0.5-0.6,0.7-0.9c-0.1,0.2-0.1,0.4-0.2,0.6c0,0,0,0.1,0,0.1c0.4,0,0.8-0.6,1.1-1.2c0,0.2-0.1,0.5-0.1,0.7
	c-0.2,0.3-0.5,0.7-0.7,1c0,0,0,0.1,0.1,0c0.1-0.3,0.4-0.5,0.6-0.7c0,0.4,0,0.9,0.1,1.2c0,0,0,0,0.1,0c0-0.1,0.1-0.2,0.1-0.3
	c0,0.2-0.1,0.3-0.1,0.5c0,0.1,0.1,0.1,0.1,0.1c0.3-0.5,0.5-1,0.8-1.5c0,0.2-0.1,0.3-0.2,0.5c-0.1,0.2-0.1,0.4-0.1,0.6c0,0,0,0,0,0
	c-0.1,0.5-0.3,1-0.3,1.5c0,0,0.1,0.1,0.1,0c0.3-0.4,0.6-0.8,0.8-1.2c-0.1,0.4-0.2,0.7-0.4,1.1c0,0,0,0,0,0c0.3-0.5,0.5-1,0.8-1.4
	c0,0.3,0,0.7,0.1,1c0,0,0.1,0,0.1,0c0.1-0.1,0.2-0.3,0.2-0.4c0,0.2,0.1,0.4,0.2,0.6c0,0.1,0.1,0,0.1,0c0-0.4,0-0.8,0.1-1.3
	c-0.1,0.5-0.1,1,0,1.4c-1.1,1.5-3.6,2.4-5.2,2.9c-2.1,0.6-5.8,1.5-6.9,3.6c-1.4,2.6-2.1,5.4-2.3,8.3c-0.1,0.9-0.2,1.8-0.3,2.7
	c-0.3,1.3-0.6,2.8-0.8,4.1c-0.1,1.2-0.6,2.7-0.4,3.9c0,0.1,0.1,0.2,0.2,0.2c0.2,0,0.5,0.1,0.7,0.1c-0.2,2.3-0.3,4.6-1,6.9
	c-0.7,2.5-1.3,5-1.7,7.5c-0.5,3-0.9,6-1.1,9c-0.2,1.7-1,4.1-0.5,5.8c-0.6,1.9-1,3.9-1.4,5.9c-0.1,0.5-0.6,1.2-0.4,1.7
	C81.9,114.7,82.5,115.8,82.8,116.9z"/>
<polyline fill="none" stroke="#EFEFEF" stroke-width="0.8356" stroke-miterlimit="10" points="128.6,34.6 101.1,32.1 91.9,31.3 "/>
<line fill="none" stroke="#EFEFEF" stroke-width="0.8356" stroke-miterlimit="10" x1="91.9" y1="108.8" x2="157.6" y2="71.2"/>
<polyline fill="none" stroke="#EFEFEF" stroke-width="0.8356" stroke-miterlimit="10" points="47.8,96.5 70.4,87.4 140.7,59 
	154.2,53.6 "/>
</svg>
