<?xml version="1.0" encoding="utf-8"?>
<!-- Generator: Adobe Illustrator 17.1.0, SVG Export Plug-In . SVG Version: 6.00 Build 0)  -->
<!DOCTYPE svg PUBLIC "-//W3C//DTD SVG 1.1//EN" "http://www.w3.org/Graphics/SVG/1.1/DTD/svg11.dtd">
<svg version="1.1" id="Capa_1" xmlns="http://www.w3.org/2000/svg" xmlns:xlink="http://www.w3.org/1999/xlink" x="0px" y="0px"
	 viewBox="0 0 612 792" enable-background="new 0 0 612 792" xml:space="preserve">
<g>
	<path fill="#E41E25" d="M592.9,376.9c-19.3,0-35-15.7-35-35c0-19.6-7.6-38-21.4-51.8c-6.3-6.3-13.5-11.3-21.3-14.9
		c2.5-27.8-11.2-55.8-36.3-70.3c-8.1-4.7-13.9-12.2-16.3-21.2c-2.4-9-1.2-18.5,3.5-26.6c0,0,0,0,0,0c0,0,0,0,0,0
		c5.3-9.1,2.1-20.8-7-26.1c-9.1-5.3-20.8-2.1-26.1,7c-4.7,8.1-12.2,13.9-21.3,16.3c-9,2.4-18.5,1.2-26.6-3.5
		c-17-9.8-36.7-12.4-55.6-7.3c-8.6,2.3-16.5,6-23.5,11c-22.8-16-53.9-18.2-79-3.7c-8.1,4.7-17.5,5.9-26.5,3.5
		c-9.1-2.4-16.6-8.2-21.3-16.3l0,0c-5.3-9.1-17-12.3-26.1-7c-9.1,5.3-12.3,17-7,26.1l0,0c4.7,8.1,5.9,17.5,3.5,26.6
		s-8.2,16.6-16.3,21.3c-17,9.8-29.1,25.6-34.1,44.5c-2.3,8.6-3,17.3-2.2,25.9c-25.3,11.7-42.7,37.5-42.7,66.6
		c0,9.4-3.7,18.1-10.2,24.7c-6.6,6.6-15.4,10.3-24.8,10.3C8.6,376.9,0,385.4,0,396s8.6,19.1,19.1,19.1c9.4,0,18.1,3.6,24.8,10.3
		c6.6,6.6,10.3,15.4,10.3,24.8c0,19.6,7.6,38,21.5,51.8c6.3,6.3,13.5,11.3,21.3,14.8c-2.5,27.8,11.2,55.7,36.3,70.3
		c8.1,4.7,13.9,12.2,16.3,21.2c2.4,9,1.2,18.5-3.5,26.5c0,0,0,0,0,0.1c-5.3,9.1-2.1,20.8,7,26.1c3,1.7,6.3,2.6,9.5,2.6
		c6.6,0,13-3.4,16.6-9.6c0,0,0,0,0,0c4.7-8.1,12.2-13.9,21.3-16.3c9-2.4,18.5-1.2,26.6,3.5c16.9,9.8,36.7,12.4,55.6,7.3
		c8.6-2.3,16.5-6,23.5-11c22.8,16,53.9,18.2,79,3.7c8.1-4.7,17.5-5.9,26.5-3.5c9,2.4,16.6,8.2,21.3,16.3c0,0,0,0,0,0
		c3.5,6.1,10,9.6,16.6,9.6c3.2,0,6.5-0.8,9.5-2.6c9.1-5.3,12.3-17,7-26.1c-4.7-8.1-5.9-17.5-3.5-26.6c2.4-9,8.2-16.6,16.3-21.3
		c16.9-9.8,29.1-25.6,34.1-44.5c2.3-8.6,3-17.3,2.2-25.9c25.3-11.7,42.7-37.6,42.7-66.6c0-9.3,3.6-18.1,10.2-24.7
		c6.6-6.6,15.4-10.3,24.8-10.3c10.6,0,19.1-8.6,19.1-19.1S603.4,376.9,592.9,376.9z M404.8,412.5c13.5,7.8,24.7,19,32.6,32.6
		l23.1,40l-46.2,0c0,0,0,0,0,0c-15.7,0-31.1-4.1-44.5-11.9c-5.9-3.4-13.2-3.4-19.1,0c-5.9,3.4-9.6,9.7-9.6,16.6
		c0,15.6-4.1,31-12,44.5l-23.1,40l-23.1-40c-7.8-13.6-12-29-12-44.5c0-6.8-3.6-13.1-9.6-16.6c-3-1.7-6.3-2.6-9.6-2.6
		c-3.3,0-6.6,0.9-9.6,2.6c-13.5,7.8-28.9,11.9-44.5,11.9c0,0,0,0,0,0h-46.2l23.1-40c7.8-13.6,19.1-24.8,32.6-32.6
		c5.9-3.4,9.6-9.7,9.6-16.6c0-6.8-3.6-13.1-9.6-16.6c-13.5-7.8-24.7-19-32.6-32.6l-23.1-40h46.2c0,0,0,0,0,0
		c15.7,0,31.1,4.1,44.5,11.9c5.9,3.4,13.2,3.4,19.1,0c5.9-3.4,9.6-9.7,9.6-16.6c0-15.6,4.1-31,12-44.5l23.1-40l23.1,40
		c7.8,13.6,12,29,12,44.5c0,6.8,3.6,13.1,9.6,16.6c5.9,3.4,13.2,3.4,19.1,0c13.5-7.8,28.9-11.9,44.5-11.9c0,0,0,0,0,0l46.2,0
		l-23.1,40c-7.8,13.6-19.1,24.8-32.6,32.6c-5.9,3.4-9.6,9.7-9.6,16.6C395.2,402.8,398.8,409.1,404.8,412.5z M365.9,183.9
		c16.9,9.8,36.7,12.4,55.6,7.3c1.1-0.3,2.2-0.6,3.3-1c0.2,1.1,0.5,2.2,0.8,3.3c5,18.9,17.1,34.6,34.1,44.4
		c11.1,6.4,17.6,18.4,17.6,30.6l-62.9,0c0,0,0,0,0,0c-13,0-25.8,2-38,5.8c-2.8-12.5-7.5-24.7-14-35.9L330.7,184
		c2.7-1.6,5.6-2.8,8.6-3.6C348.4,178,357.8,179.2,365.9,183.9z M136,259.3c2.4-9,8.2-16.6,16.3-21.3c16.9-9.8,29.1-25.6,34.1-44.5
		c0.3-1.1,0.6-2.2,0.8-3.3c1.1,0.3,2.2,0.7,3.3,1c18.9,5.1,38.6,2.5,55.5-7.3c11.2-6.4,24.7-6,35.3,0.1l-31.5,54.5
		c-6.5,11.2-11.2,23.4-14,35.9c-12.3-3.8-25.1-5.8-38.1-5.8c0,0,0,0,0,0l-62.9,0C134.8,265.5,135.2,262.4,136,259.3z M70.9,398.3
		c-0.8-0.8-1.6-1.6-2.4-2.3c0.8-0.8,1.6-1.5,2.4-2.3c13.8-13.8,21.4-32.2,21.5-51.7c0-12.9,7.1-24.4,17.7-30.5l31.5,54.5
		c6.5,11.2,14.6,21.4,24.1,30.1c-9.5,8.7-17.6,18.8-24.1,30.1l-31.5,54.5c-2.7-1.5-5.2-3.4-7.5-5.7c-6.6-6.6-10.3-15.4-10.3-24.8
		C92.3,430.6,84.7,412.2,70.9,398.3z M246.1,608.1c-11.3-6.5-23.8-9.8-36.5-9.8c-6.4,0-12.8,0.8-19.1,2.5c-1.1,0.3-2.2,0.6-3.3,1
		c-0.2-1.1-0.5-2.2-0.8-3.3c-5-18.9-17.1-34.6-34-44.4c-11.1-6.4-17.6-18.3-17.5-30.6l62.9,0c0,0,0,0,0,0c13,0,25.8-2,38.1-5.8
		c2.8,12.5,7.5,24.6,14,35.9l31.5,54.5c-2.7,1.6-5.6,2.8-8.7,3.6C263.6,614,254.2,612.8,246.1,608.1z M476,532.7
		c-2.4,9-8.2,16.6-16.3,21.3c-16.9,9.8-29.1,25.6-34.1,44.5c-0.3,1.1-0.6,2.2-0.8,3.3c-1.1-0.3-2.2-0.7-3.3-1
		c-18.9-5-38.6-2.5-55.5,7.3c-11.1,6.4-24.7,6-35.3-0.1l31.4-54.5c6.5-11.2,11.2-23.4,14-35.9c12.3,3.8,25.1,5.8,38.1,5.8
		c0,0,0,0,0,0l62.9,0C477.2,526.5,476.8,529.6,476,532.7z M541.1,398.3c-13.8,13.8-21.4,32.2-21.4,51.7c0,12.9-7.1,24.4-17.7,30.5
		l-31.5-54.5c-6.5-11.2-14.6-21.4-24.1-30.1c9.4-8.7,17.6-18.8,24.1-30.1l31.5-54.5c2.7,1.5,5.2,3.4,7.5,5.7
		c6.6,6.6,10.3,15.4,10.3,24.8c0,21.4,9.2,40.7,23.9,54.1C542.7,396.7,541.9,397.5,541.1,398.3z"/>
	<path fill="#E41E25" d="M324.8,325.7c-18.8-5-38.4-2.4-55.2,7.3c-16.8,9.7-28.9,25.4-33.9,44.2c-5,18.8-2.4,38.4,7.3,55.2
		c9.7,16.8,25.4,28.9,44.2,33.9c6.3,1.7,12.6,2.5,18.9,2.5c12.6,0,25-3.3,36.2-9.8c34.7-20.1,46.7-64.6,26.6-99.4
		C359.3,342.8,343.6,330.8,324.8,325.7z M339.3,404.9c-2.4,8.9-8.1,16.4-16.1,21c-16.5,9.5-37.6,3.8-47.2-12.6
		c-4.6-8-5.8-17.3-3.4-26.2c2.4-8.9,8.1-16.4,16.1-21c5.3-3.1,11.2-4.6,17.2-4.6c3,0,6,0.4,9,1.2c8.9,2.4,16.4,8.1,21,16.1l0,0
		C340.5,386.7,341.7,396,339.3,404.9z"/>
</g>
</svg>
