<?xml version="1.0" encoding="utf-8"?>
<!-- Generator: Adobe Illustrator 17.1.0, SVG Export Plug-In . SVG Version: 6.00 Build 0)  -->
<!DOCTYPE svg PUBLIC "-//W3C//DTD SVG 1.1//EN" "http://www.w3.org/Graphics/SVG/1.1/DTD/svg11.dtd">
<svg version="1.1" id="Capa_1" xmlns="http://www.w3.org/2000/svg" xmlns:xlink="http://www.w3.org/1999/xlink" x="0px" y="0px"
	 viewBox="0 0 612 792" enable-background="new 0 0 612 792" xml:space="preserve">
<g>
	<path fill="#E41E25" d="M563.7,521.7C563.7,521.7,563.7,521.7,563.7,521.7c-6.9-4-11.9-10.4-13.9-18.1c-2.1-7.7-1-15.8,3-22.7
		c6.1-10.6,9.4-22.7,9.4-34.9c0-19-7.8-37-21-50c8.9-8.7,15.4-19.6,18.7-31.9c4.8-18,2.3-36.8-7-53c-2.6-4.6-4-9.7-4-14.9
		c0-10.7,5.7-20.6,14.9-25.9c0,0,0,0,0,0l0,0c0,0,0,0,0,0c9.6-5.5,12.8-17.7,7.3-27.3c-5.5-9.6-17.7-12.8-27.3-7.3
		c-6.9,4-15,5.1-22.7,3c-7.7-2.1-14.2-7-18.1-13.9c-12.5-21.5-35.6-34.9-60.5-34.9c-6.4,0-12.7,0.9-18.8,2.6
		c-7.7-30.2-35.1-52.6-67.7-52.6c-8,0-15.5-3.1-21.1-8.7c-5.7-5.7-8.8-13.2-8.8-21.1c0-11-8.9-20-20-20c-11,0-20,8.9-20,20
		c0,16.5-13.4,29.9-29.9,29.9c-18.7,0-36.2,7.3-49.4,20.5c-9,9-15.2,20.1-18.3,32.1c-12-3.4-24.6-3.5-36.9-0.2
		c-18,4.8-33.1,16.4-42.4,32.5c-5.3,9.2-15.3,15-25.9,15c-5.2,0-10.3-1.4-14.9-4c-9.6-5.5-21.8-2.2-27.3,7.3
		c-5.5,9.6-2.2,21.8,7.3,27.3c0,0,0,0,0,0c0,0,0,0,0,0c14.3,8.2,19.2,26.6,10.9,40.8c-6.1,10.6-9.4,22.7-9.4,34.9
		c0,19,7.8,37,21.1,50c-8.9,8.7-15.4,19.6-18.7,31.9c-4.8,18-2.4,36.8,7,53c2.6,4.5,4,9.7,4,14.9c0,10.7-5.7,20.6-14.9,25.9
		c-9.6,5.5-12.8,17.7-7.3,27.3c5.5,9.6,17.7,12.8,27.3,7.3c0,0,0,0,0,0c14.3-8.2,32.6-3.3,40.8,11c12.4,21.5,35.6,34.9,60.5,34.9
		c6.4,0,12.7-0.9,18.8-2.6c7.7,30.2,35.1,52.6,67.7,52.6c8,0,15.5,3.1,21.1,8.7c5.7,5.7,8.8,13.2,8.8,21.1c0,11,8.9,20,20,20
		s20-8.9,20-20c0-16.5,13.4-29.9,29.9-29.9c18.7,0,36.2-7.3,49.4-20.5c9-9,15.2-20.1,18.3-32.1c12,3.4,24.6,3.5,36.9,0.2
		c18-4.8,33.1-16.4,42.4-32.5c5.3-9.2,15.2-14.9,25.9-14.9c5.2,0,10.4,1.4,14.9,4l0,0c9.6,5.5,21.8,2.2,27.3-7.3
		C576.5,539.4,573.2,527.2,563.7,521.7z M427.5,233.8c4.6-2.6,9.7-4,14.9-4c10.7,0,20.6,5.7,25.9,15c9.3,16.2,24.4,27.7,42.4,32.5
		c0.2,0.1,0.4,0.1,0.7,0.2c-1.7,6-2.6,12.3-2.6,18.8c0,12.2,3.2,24.3,9.4,34.9c4,6.9,5.1,15,3,22.7c-2.1,7.7-7,14.2-13.9,18.1
		l-10.3,6c-5.4-56.9-35.7-106.6-79.8-138.1L427.5,233.8z M306,547.8c-83.7,0-151.8-68.1-151.8-151.8S222.3,244.2,306,244.2
		S457.8,312.3,457.8,396C457.8,479.7,389.7,547.8,306,547.8z M235,188.6c5.6-5.6,13.1-8.8,21.1-8.8c19.5,0,37.2-8,49.8-21
		c0.2,0.2,0.3,0.3,0.5,0.5c13.2,13.2,30.7,20.5,49.4,20.5c16.5,0,29.9,13.4,29.9,29.9v11.9c-24.3-11.2-51.3-17.4-79.7-17.4
		c-28.4,0-55.4,6.2-79.7,17.4v-11.9C226.3,201.7,229.4,194.2,235,188.6z M93.8,331.1c9.7-16.9,11.6-36.2,6.8-53.6
		c17.9-4.6,33.6-16.3,43.1-32.7c4-6.9,10.4-11.9,18.1-13.9c7.7-2.1,15.8-1,22.7,3l10.4,6c-44.2,31.5-74.4,81.2-79.8,138.1l-10.3-6
		c-9.2-5.3-15-15.3-15-25.9C89.8,340.8,91.2,335.6,93.8,331.1z M184.5,558.2c-4.6,2.6-9.7,4-14.9,4c-10.7,0-20.6-5.7-25.9-15
		c-9.8-16.9-25.5-28.2-43.1-32.7c1.7-6,2.6-12.4,2.6-18.8c0-12.2-3.2-24.3-9.4-34.9c-4-6.9-5.1-15-3-22.7c2.1-7.7,7-14.2,13.9-18.1
		l10.3-6c5.4,56.9,35.6,106.6,79.8,138.1L184.5,558.2z M377,603.4c-5.6,5.6-13.1,8.8-21.1,8.8c-19.5,0-37.2,8-49.8,21
		c-0.2-0.2-0.3-0.3-0.5-0.5c-13.2-13.2-30.7-20.5-49.4-20.5c-16.5,0-29.9-13.4-29.9-29.9v-11.9c24.3,11.2,51.3,17.4,79.7,17.4
		c28.4,0,55.4-6.2,79.7-17.4v11.9C385.7,590.3,382.6,597.8,377,603.4z M518.2,460.9c-9.3,16.2-11.8,35-7,53c0.1,0.2,0.1,0.4,0.2,0.7
		c-17.9,4.6-33.6,16.3-43.1,32.7c-8.2,14.3-26.6,19.2-40.8,10.9l-10.4-6c44.2-31.5,74.4-81.2,79.8-138.1l10.3,6
		c9.2,5.3,14.9,15.2,14.9,25.9C522.2,451.2,520.8,456.4,518.2,460.9z"/>
	<path fill="#E41E25" d="M306,272.4c-68.1,0-123.6,55.4-123.6,123.6S237.9,519.6,306,519.6S429.6,464.1,429.6,396
		S374.1,272.4,306,272.4z M306,479.6c-46.1,0-83.6-37.5-83.6-83.6s37.5-83.6,83.6-83.6s83.6,37.5,83.6,83.6S352.1,479.6,306,479.6z"
		/>
	<path fill="#E41E25" d="M306,376c-5.3,0-10.4,2.1-14.1,5.9c-3.7,3.7-5.9,8.9-5.9,14.1s2.1,10.4,5.9,14.1c3.7,3.7,8.9,5.8,14.1,5.8
		c5.3,0,10.4-2.1,14.1-5.8c3.7-3.7,5.8-8.9,5.8-14.1c0-5.3-2.1-10.4-5.8-14.1C316.4,378.2,311.3,376,306,376z"/>
</g>
</svg>
