<?xml version="1.0" encoding="utf-8"?>
<!-- Generator: Adobe Illustrator 17.1.0, SVG Export Plug-In . SVG Version: 6.00 Build 0)  -->
<!DOCTYPE svg PUBLIC "-//W3C//DTD SVG 1.1//EN" "http://www.w3.org/Graphics/SVG/1.1/DTD/svg11.dtd">
<svg version="1.1" id="Capa_1" xmlns="http://www.w3.org/2000/svg" xmlns:xlink="http://www.w3.org/1999/xlink" x="0px" y="0px"
	 viewBox="0 0 612 792" enable-background="new 0 0 612 792" xml:space="preserve">
<g>
	<path fill="#E41E25" d="M609.3,634.3l-90.5-156.7c-21.8-37.7-60.2-60.7-103.4-62.1c20.6-38.2,20-83.1-1.9-120.9l-90.5-156.7
		c-3.5-6.1-10.1-9.9-17.1-9.9s-13.6,3.8-17.1,9.9l-90.5,156.7c-21.8,37.8-22.4,82.7-1.9,120.9c-43.2,1.4-81.7,24.4-103.4,62.1
		L2.7,634.3c-3.5,6.1-3.5,13.7,0,19.8c3.5,6.1,10.1,9.9,17.1,9.9h180.9c43.4,0,82.4-21.7,105.3-58.3c22.8,36.6,61.9,58.3,105.3,58.3
		h180.9c7.1,0,13.6-3.8,17.1-9.9C612.9,648,612.9,640.4,609.3,634.3z M232.7,314.4l73.3-127l73.3,127c15.3,26.5,15.3,58.2,0,84.7
		c-15.3,26.5-42.7,42.3-73.3,42.3s-58-15.8-73.3-42.3C217.4,372.6,217.4,340.9,232.7,314.4z M274.1,582.1
		c-15.3,26.5-42.7,42.3-73.3,42.3H54.1l73.3-127c15.3-26.5,42.7-42.3,73.3-42.3s58,15.8,73.3,42.3
		C289.4,523.9,289.4,555.5,274.1,582.1z M411.3,624.4c-30.6,0-58-15.8-73.3-42.3c-15.3-26.5-15.3-58.2,0-84.7
		c15.3-26.5,42.7-42.3,73.3-42.3c30.6,0,58,15.8,73.3,42.3l73.3,127H411.3z"/>
	<path fill="#E41E25" d="M200.7,488.8c-28.1,0-51,22.9-51,51c0,28.1,22.9,51,51,51s51-22.9,51-51
		C251.7,511.6,228.8,488.8,200.7,488.8z M200.7,551.1c-6.3,0-11.4-5.1-11.4-11.4c0-6.3,5.1-11.4,11.4-11.4s11.4,5.1,11.4,11.4
		C212.1,546,207,551.1,200.7,551.1z"/>
	<path fill="#E41E25" d="M411.3,488.8c-28.1,0-51,22.9-51,51c0,28.1,22.9,51,51,51c28.1,0,51-22.9,51-51
		C462.2,511.6,439.4,488.8,411.3,488.8z M411.3,551.1c-6.3,0-11.4-5.1-11.4-11.4c0-6.3,5.1-11.4,11.4-11.4s11.4,5.1,11.4,11.4
		C422.7,546,417.6,551.1,411.3,551.1z"/>
	<path fill="#E41E25" d="M306,407.7c28.1,0,51-22.9,51-51c0-28.1-22.9-51-51-51c-28.1,0-51,22.9-51,51
		C255,384.8,277.9,407.7,306,407.7z M306,345.4c6.3,0,11.4,5.1,11.4,11.4s-5.1,11.4-11.4,11.4s-11.4-5.1-11.4-11.4
		S299.7,345.4,306,345.4z"/>
</g>
</svg>
